<svg xmlns="http://www.w3.org/2000/svg" viewBox="0 0 1024 1024">
  <path d="M853.333333 0H170.666667C75.093333 0 0 75.093333 0 170.666667v682.666666c0 95.573333 75.093333 170.666667 170.666667 170.666667h682.666666c95.573333 0 170.666667-75.093333 170.666667-170.666667V170.666667c0-95.573333-75.093333-170.666667-170.666667-170.666667z m102.4 853.333333c0 54.613333-47.786667 102.4-102.4 102.4H170.666667c-54.613333 0-102.4-47.786667-102.4-102.4V170.666667c0-54.613333 47.786667-102.4 102.4-102.4h682.666666c54.613333 0 102.4 47.786667 102.4 102.4v682.666666z m-238.933333-477.866666c0-116.053333-88.746667-204.8-204.8-204.8s-204.8 88.746667-204.8 204.8c0 61.44 27.306667 116.053333 68.266667 157.013333-122.88 40.96-204.8 157.013333-204.8 286.72 0 20.48 13.653333 34.133333 34.133333 34.133333s34.133333-13.653333 34.133333-34.133333c0-129.706667 109.226667-238.933333 238.933334-238.933333h34.133333c116.053333 0 204.8-88.746667 204.8-204.8z m-204.8 136.533333c-75.093333 0-136.533333-61.44-136.533333-136.533333s61.44-136.533333 136.533333-136.533334 136.533333 61.44 136.533333 136.533334-61.44 136.533333-136.533333 136.533333z m273.066667 102.4h-204.8c-20.48 0-34.133333 13.653333-34.133334 34.133333s13.653333 34.133333 34.133334 34.133334h204.8c20.48 0 34.133333-13.653333 34.133333-34.133334s-13.653333-34.133333-34.133333-34.133333z m0 136.533333h-204.8c-20.48 0-34.133333 13.653333-34.133334 34.133334s13.653333 34.133334 34.133334 34.133334h204.8c20.48 0 34.133333-13.653333 34.133333-34.133333s-13.653333-34.133333-34.133333-34.133334z"/>
</svg>
